# xmcd
#
# Track frame offsets:
#	150
#	5222
#	18938
#	36229
#	49967
#	69668
#	87668
#	102840
#	114408
#	137328
#	158981
#	175507
#	187088
#	203210
#	217215
#	228872
#	245166
#
# Disc length: 3444 seconds
#
# Revision: 1
# Processed by: cddbd v1.5.2PL0 Copyright (c) Steve Scherf et al.
# Submitted via: audiograbber 1.83.01
#
DISCID=f40d7211
DTITLE=Ständut Blakk - Live covers
DYEAR=1900
DGENRE=
TTITLE0=Farfar Westman
TTITLE1=Old time rock´n roll
TTITLE2=Hum hum från Humlegården
TTITLE3=Oh boy - You can call me Al
TTITLE4=Games people play
TTITLE5=I will survive
TTITLE6=Waiting on a sunny day
TTITLE7=Leva livet - Leva livet (It´s my party)
TTITLE8=Hårdrockmedley
TTITLE9=Whats up
TTITLE10=Karma Chameleon
TTITLE11=Finns det lite stolthet kvar
TTITLE12=Sweet child of mine
TTITLE13=Kom ihåg mig
TTITLE14=Why don´t you get a job
TTITLE15=Run, run away - Centerfold
TTITLE16=Only you (Bach version)
EXTD=
EXTT0=
EXTT1=
EXTT2=
EXTT3=
EXTT4=
EXTT5=
EXTT6=
EXTT7=Rock´n roll all night - Jump - Highway to hell
EXTT8=
EXTT9=
EXTT10=Sing Sing Sing Lets Make A Better World
EXTT11=
EXTT12=
EXTT13=
EXTT14=
EXTT15=
EXTT16=
PLAYORDER=
